{
  "accessors": [
    {
      "bufferView": 2,
      "componentType": 5126,
      "count": 1138,
      "max": [
        8.903396606445313,
        139.71795654296875,
        3.137969970703125
      ],
      "min": [
        -8.718765258789063,
        -139.71798706054688,
        -5.004364013671875
      ],
      "type": "VEC3"
    },
    {
      "bufferView": 2,
      "byteOffset": 13656,
      "componentType": 5126,
      "count": 1138,
      "max": [
        1.0,
        1.0,
        1.0
      ],
      "min": [
        -1.0,
        -1.0,
        -1.0
      ],
      "type": "VEC3"
    },
    {
      "bufferView": 3,
      "componentType": 5126,
      "count": 1138,
      "max": [
        1.0,
        1.0,
        1.0,
        1.0
      ],
      "min": [
        -0.8502435684204102,
        -1.0,
        -1.0,
        1.0
      ],
      "type": "VEC4"
    },
    {
      "bufferView": 1,
      "componentType": 5126,
      "count": 1138,
      "max": [
        0.9156489968299866,
        0.9980080127716064
      ],
      "min": [
        0.0018599999602884054,
        0.0019920000340789557
      ],
      "type": "VEC2"
    },
    {
      "bufferView": 0,
      "componentType": 5125,
      "count": 2880,
      "type": "SCALAR"
    },
    {
      "bufferView": 2,
      "byteOffset": 27312,
      "componentType": 5126,
      "count": 192,
      "max": [
        28.002593994140625,
        109.29576873779297,
        4.954194068908691
      ],
      "min": [
        -28.002593994140625,
        53.290565490722656,
        1.9541929960250854
      ],
      "type": "VEC3"
    },
    {
      "bufferView": 2,
      "byteOffset": 29616,
      "componentType": 5126,
      "count": 192,
      "max": [
        0.9992863535881042,
        0.9994434714317322,
        0.9999988675117493
      ],
      "min": [
        -0.9992863535881042,
        -0.9994436502456665,
        -0.9999988675117493
      ],
      "type": "VEC3"
    },
    {
      "bufferView": 3,
      "byteOffset": 18208,
      "componentType": 5126,
      "count": 192,
      "max": [
        1.0,
        0.43213316798210144,
        0.9994447827339172,
        1.0
      ],
      "min": [
        -0.615729033946991,
        -0.432129442691803,
        -0.9994444847106934,
        1.0
      ],
      "type": "VEC4"
    },
    {
      "bufferView": 1,
      "byteOffset": 9104,
      "componentType": 5126,
      "count": 192,
      "max": [
        0.7347480058670044,
        0.20132599771022797
      ],
      "min": [
        0.2641499936580658,
        0.0019920000340789557
      ],
      "type": "VEC2"
    },
    {
      "bufferView": 0,
      "byteOffset": 11520,
      "componentType": 5125,
      "count": 756,
      "type": "SCALAR"
    },
    {
      "bufferView": 2,
      "byteOffset": 31920,
      "componentType": 5126,
      "count": 79,
      "max": [
        34.51344299316406,
        131.62994384765625,
        5.004242897033691
      ],
      "min": [
        -34.51344299316406,
        114.709716796875,
        2.004241943359375
      ],
      "type": "VEC3"
    },
    {
      "bufferView": 2,
      "byteOffset": 32868,
      "componentType": 5126,
      "count": 79,
      "max": [
        0.9998949766159058,
        1.0,
        1.0
      ],
      "min": [
        -0.9998949766159058,
        -0.9999986290931702,
        -1.0
      ],
      "type": "VEC3"
    },
    {
      "bufferView": 3,
      "byteOffset": 21280,
      "componentType": 5126,
      "count": 79,
      "max": [
        6.227132871572394e-06,
        1.0,
        1.0,
        1.0
      ],
      "min": [
        -0.00016396479622926563,
        -1.0,
        -1.0,
        1.0
      ],
      "type": "VEC4"
    },
    {
      "bufferView": 1,
      "byteOffset": 10640,
      "componentType": 5126,
      "count": 79,
      "max": [
        0.9320729970932007,
        0.24803000688552856
      ],
      "min": [
        0.09305199980735779,
        0.0019920000340789557
      ],
      "type": "VEC2"
    },
    {
      "bufferView": 0,
      "byteOffset": 14544,
      "componentType": 5125,
      "count": 192,
      "type": "SCALAR"
    }
  ],
  "asset": {
    "extras": {
      "author": "anastasiao (https://sketchfab.com/anastasiao)",
      "license": "CC-BY-4.0 (http://creativecommons.org/licenses/by/4.0/)",
      "source": "https://sketchfab.com/3d-models/stop-sign-with-direction-arrow-8311b144332746cc823c10adba9b6e92",
      "title": "Stop Sign with Direction Arrow"
    },
    "generator": "Sketchfab-13.74.0",
    "version": "2.0"
  },
  "bufferViews": [
    {
      "buffer": 0,
      "byteLength": 15312,
      "name": "floatBufferViews",
      "target": 34963
    },
    {
      "buffer": 0,
      "byteLength": 11272,
      "byteOffset": 15312,
      "byteStride": 8,
      "name": "floatBufferViews",
      "target": 34962
    },
    {
      "buffer": 0,
      "byteLength": 33816,
      "byteOffset": 26584,
      "byteStride": 12,
      "name": "floatBufferViews",
      "target": 34962
    },
    {
      "buffer": 0,
      "byteLength": 22544,
      "byteOffset": 60400,
      "byteStride": 16,
      "name": "floatBufferViews",
      "target": 34962
    }
  ],
  "buffers": [
    {
      "byteLength": 82944,
      "uri": "scene.bin"
    }
  ],
  "images": [
    {
      "uri": "textures/StopSignPole1_baseColor.jpeg"
    },
    {
      "uri": "textures/StopSignPole1_metallicRoughness.png"
    },
    {
      "uri": "textures/StopSignPole1_normal.png"
    },
    {
      "uri": "textures/StopSign1_baseColor.jpeg"
    },
    {
      "uri": "textures/StopSign1_metallicRoughness.png"
    },
    {
      "uri": "textures/StopSign1_normal.png"
    },
    {
      "uri": "textures/Directionsign1_baseColor.jpeg"
    },
    {
      "uri": "textures/Directionsign1_metallicRoughness.png"
    },
    {
      "uri": "textures/Directionsign1_normal.png"
    }
  ],
  "materials": [
    {
      "doubleSided": true,
      "name": "StopSignPole1",
      "normalTexture": {
        "index": 2
      },
      "occlusionTexture": {
        "index": 1
      },
      "pbrMetallicRoughness": {
        "baseColorTexture": {
          "index": 0
        },
        "metallicRoughnessTexture": {
          "index": 1
        }
      }
    },
    {
      "doubleSided": true,
      "name": "StopSign1",
      "normalTexture": {
        "index": 5
      },
      "occlusionTexture": {
        "index": 4
      },
      "pbrMetallicRoughness": {
        "baseColorTexture": {
          "index": 3
        },
        "metallicRoughnessTexture": {
          "index": 4
        }
      }
    },
    {
      "doubleSided": true,
      "name": "Directionsign1",
      "normalTexture": {
        "index": 8
      },
      "occlusionTexture": {
        "index": 7
      },
      "pbrMetallicRoughness": {
        "baseColorTexture": {
          "index": 6
        },
        "metallicRoughnessTexture": {
          "index": 7
        }
      }
    }
  ],
  "meshes": [
    {
      "name": "defaultMaterial",
      "primitives": [
        {
          "attributes": {
            "NORMAL": 1,
            "POSITION": 0,
            "TANGENT": 2,
            "TEXCOORD_0": 3
          },
          "indices": 4,
          "material": 0,
          "mode": 4
        }
      ]
    },
    {
      "name": "defaultMaterial",
      "primitives": [
        {
          "attributes": {
            "NORMAL": 6,
            "POSITION": 5,
            "TANGENT": 7,
            "TEXCOORD_0": 8
          },
          "indices": 9,
          "material": 1,
          "mode": 4
        }
      ]
    },
    {
      "name": "defaultMaterial",
      "primitives": [
        {
          "attributes": {
            "NORMAL": 11,
            "POSITION": 10,
            "TANGENT": 12,
            "TEXCOORD_0": 13
          },
          "indices": 14,
          "material": 2,
          "mode": 4
        }
      ]
    }
  ],
  "nodes": [
    {
      "children": [
        1
      ],
      "matrix": [
        1.0,
        0.0,
        0.0,
        0.0,
        0.0,
        2.220446049250313e-16,
        -1.0,
        0.0,
        0.0,
        1.0,
        2.220446049250313e-16,
        0.0,
        0.0,
        0.0,
        0.0,
        1.0
      ],
      "name": "Sketchfab_model"
    },
    {
      "children": [
        2
      ],
      "matrix": [
        1.0,
        0.0,
        0.0,
        0.0,
        0.0,
        -4.371139006309477e-08,
        0.999999999999999,
        0.0,
        0.0,
        -0.999999999999999,
        -4.371139006309477e-08,
        0.0,
        0.0,
        0.0,
        0.0,
        1.0
      ],
      "name": "Collada visual scene group"
    },
    {
      "children": [
        3,
        4,
        5
      ],
      "matrix": [
        1.0,
        0.0,
        0.0,
        0.0,
        0.0,
        1.0,
        0.0,
        0.0,
        0.0,
        0.0,
        1.0,
        0.0,
        0.0,
        8e-06,
        3e-05,
        1.0
      ],
      "name": "polySurface11"
    },
    {
      "mesh": 0,
      "name": "defaultMaterial"
    },
    {
      "mesh": 1,
      "name": "defaultMaterial"
    },
    {
      "mesh": 2,
      "name": "defaultMaterial"
    }
  ],
  "samplers": [
    {
      "magFilter": 9729,
      "minFilter": 9987,
      "wrapS": 10497,
      "wrapT": 10497
    }
  ],
  "scene": 0,
  "scenes": [
    {
      "name": "Sketchfab_Scene",
      "nodes": [
        0
      ]
    }
  ],
  "textures": [
    {
      "sampler": 0,
      "source": 0
    },
    {
      "sampler": 0,
      "source": 1
    },
    {
      "sampler": 0,
      "source": 2
    },
    {
      "sampler": 0,
      "source": 3
    },
    {
      "sampler": 0,
      "source": 4
    },
    {
      "sampler": 0,
      "source": 5
    },
    {
      "sampler": 0,
      "source": 6
    },
    {
      "sampler": 0,
      "source": 7
    },
    {
      "sampler": 0,
      "source": 8
    }
  ]
}
